# xmcd
#
# Track frame offsets:
# 150
# 13916
# 29787
# 41476
# 54039
# 72844
# 86681
# 105092
# 120555
# 136348
# 153317
# 170168
# 185807
#
# Disc length: 2657 seconds
#
#
# Revision: 10
# Processed by: cddbd v1.5.1PL0 Copyright (c) Steve Scherf et al.
# Submitted via: FreeRIP 2.35 
#
DISCID=ab0a5f0d
DTITLE=Annett Louisan - Bohème
DYEAR=2004
DGENRE=Pop
TTITLE0=Das Spiel
TTITLE1=Die Lüge
TTITLE2=Die Dinge
TTITLE3=Das Gefühl
TTITLE4=Daddy
TTITLE5=Die Katze
TTITLE6=Der Schöne
TTITLE7=Die Gelegenheit
TTITLE8=Der Blender
TTITLE9=Die Trägheit
TTITLE10=Die Formel
TTITLE11=Das Liebeslied
TTITLE12=Das Spiel (Radiomix)
EXTD=YEAR: 2004
EXTT0=
EXTT1=
EXTT2=
EXTT3=
EXTT4=
EXTT5=
EXTT6=
EXTT7=
EXTT8=
EXTT9=
EXTT10=
EXTT11=
EXTT12=
PLAYORDER=
